# Blender v2.76 (sub 0) OBJ File: 'trapdoor.blend'
# www.blender.org
mtllib trapdoor.mtl
o Cube
v 0.754200 0.093280 -0.000383
v 0.734017 0.133125 -0.000383
v 0.713834 0.093280 -0.000383
v 0.724643 0.093280 -0.071739
v 0.710372 0.133125 -0.057468
v 0.696100 0.093280 -0.043197
v 0.653287 0.093280 -0.101296
v 0.653287 0.133125 -0.081113
v 0.653287 0.093280 -0.060931
v 0.581931 0.093280 -0.071739
v 0.596202 0.133125 -0.057468
v 0.610473 0.093280 -0.043197
v 0.552374 0.093280 -0.000383
v 0.572556 0.133125 -0.000383
v 0.592739 0.093280 -0.000383
v 0.581931 0.093280 0.070973
v 0.596202 0.133125 0.056702
v 0.610473 0.093280 0.042431
v 0.653287 0.093280 0.100530
v 0.653287 0.133125 0.080347
v 0.653287 0.093280 0.060165
v 0.724643 0.093280 0.070973
v 0.710372 0.133125 0.056702
v 0.696100 0.093280 0.042431
v 1.000000 0.035950 -1.000000
v 1.000000 0.035950 1.000000
v -1.000000 0.035950 1.000000
v -1.000000 0.035950 -1.000000
v 1.000000 0.118604 -0.999999
v 0.999999 0.118604 1.000001
v -1.000000 0.118604 1.000000
v -1.000000 0.118604 -1.000000
v 0.816387 0.118604 -0.816386
v 0.816386 0.118604 0.816387
v -0.816387 0.118604 0.816386
v -0.816386 0.118604 -0.816386
v -0.816386 0.099468 -0.816386
v -0.816387 0.099468 0.816386
v 0.816386 0.099468 0.816387
v 0.816387 0.099468 -0.816386
v 0.525848 0.106228 -0.000000
v 0.543019 0.106228 -0.023876
v 0.543019 0.106228 0.023876
v 0.554466 0.165895 0.000000
v 0.563052 0.147995 -0.023876
v 0.563052 0.147995 0.023876
v 0.611703 0.165895 0.000000
v 0.603118 0.147995 -0.023876
v 0.603118 0.147995 0.023876
v 0.640322 0.106228 0.000000
v 0.623151 0.106228 -0.023876
v 0.623151 0.106228 0.023876
v 0.620387 0.064894 -0.000000
v 0.603118 0.064461 -0.023876
v 0.603118 0.064461 0.023876
v 0.545782 0.064894 -0.000000
v 0.563052 0.064461 -0.023876
v 0.563052 0.064461 0.023876
v -0.949293 0.143917 0.897562
v -0.971826 0.112904 0.897562
v -0.879988 0.143917 -0.912797
v -0.879988 0.143917 0.881744
v -0.971826 0.112904 -0.896978
v 0.891020 0.143917 -0.930060
v 0.876971 0.112904 -0.947677
v -0.949293 0.143917 -0.896978
v 0.921864 0.143917 -0.937100
v 0.926878 0.112904 -0.959068
v -0.899709 0.112904 -0.954490
v -0.949615 0.112904 -0.850858
v -0.935567 0.143917 -0.868474
v 0.946599 0.143917 -0.917375
v 0.966900 0.112904 -0.927151
v -0.904723 0.143917 -0.932522
v -0.912835 0.155763 -0.896978
v 0.946599 0.143917 -0.885738
v 0.966900 0.112904 -0.875961
v -0.949615 0.112904 -0.943099
v -0.899709 0.112904 -0.839467
v 0.921864 0.143917 -0.866012
v 0.926878 0.112904 -0.844045
v -0.935567 0.143917 -0.925483
v -0.904723 0.143917 -0.861434
v 0.913751 0.155763 -0.901556
v 0.891020 0.143917 -0.873052
v 0.876971 0.112904 -0.855436
v -0.859687 0.112904 -0.871384
v 0.877293 0.143917 -0.901556
v 0.854761 0.112904 -0.901556
v -0.879988 0.143917 -0.881160
v -0.859687 0.112904 -0.922573
v -0.899709 0.112904 0.840051
v -0.949615 0.112904 0.943683
v -0.935567 0.143917 0.926066
v -0.904723 0.143917 0.862018
v -0.912835 0.155763 0.897562
v -0.949615 0.112904 0.851442
v -0.899709 0.112904 0.955074
v -0.935567 0.143917 0.869058
v -0.904723 0.143917 0.933106
v -0.859687 0.112904 0.923157
v -0.879988 0.143917 0.913381
v -0.859687 0.112904 0.871967
v 0.868137 0.143917 0.902140
v 0.845605 0.112904 0.902140
v 0.937443 0.143917 0.886322
v 0.917722 0.112904 0.844629
v 0.867815 0.112904 0.948261
v 0.881864 0.143917 0.930644
v 0.912708 0.143917 0.866596
v 0.904595 0.155763 0.902140
v 0.867815 0.112904 0.856020
v 0.917722 0.112904 0.959652
v 0.881864 0.143917 0.873636
v 0.912708 0.143917 0.937684
v 0.957744 0.112904 0.927735
v 0.937443 0.143917 0.917959
v 0.957744 0.112904 0.876545
vt 0.091807 0.091807
vt 0.091807 0.908193
vt 0.000000 1.000000
vt 1.000000 1.000000
vt 1.000000 0.000000
vt 0.000000 0.000000
vt 0.908193 0.091807
vt 0.908193 0.908193
vt 0.877100 0.500192
vt 0.862321 0.535870
vt 0.867008 0.500192
vt 0.855186 0.528734
vt 0.848050 0.521599
vt 0.826643 0.550648
vt 0.826643 0.540557
vt 0.826643 0.530466
vt 0.790965 0.535870
vt 0.798101 0.528734
vt 0.805236 0.521599
vt 0.776187 0.500192
vt 0.786278 0.500192
vt 0.796369 0.500192
vt 0.790965 0.464514
vt 0.798101 0.471649
vt 0.826643 0.449735
vt 0.826643 0.459827
vt 0.805236 0.478785
vt 0.862321 0.464514
vt 0.855186 0.471649
vt 0.848050 0.478785
vt 0.856917 0.500192
vt 0.762924 0.500000
vt 0.777233 0.500000
vt 0.781526 0.511938
vt 0.771509 0.488062
vt 0.781526 0.488062
vt 0.805851 0.500000
vt 0.801559 0.511938
vt 0.801559 0.488062
vt 0.820161 0.500000
vt 0.811575 0.488062
vt 0.810193 0.500000
vt 0.811575 0.511938
vt 0.772891 0.500000
vt 0.771509 0.511938
vt 0.043582 0.051219
vt 0.060006 0.043310
vt 0.060006 0.059128
vt 0.043582 0.948489
vt 0.032217 0.962741
vt 0.025353 0.948489
vt 0.047639 0.033447
vt 0.032217 0.036967
vt 0.960932 0.968550
vt 0.963439 0.979534
vt 0.938485 0.973838
vt 0.025353 0.051219
vt 0.025192 0.028159
vt 0.025193 0.971549
vt 0.014087 0.948489
vt 0.014087 0.051219
vt 0.973299 0.958687
vt 0.983450 0.963576
vt 0.032217 0.065471
vt 0.025192 0.074279
vt 0.025193 0.925429
vt 0.973299 0.942869
vt 0.983450 0.937981
vt 0.032217 0.934237
vt 0.047639 0.930717
vt 0.960932 0.933006
vt 0.963439 0.922023
vt 0.945510 0.936526
vt 0.938485 0.927718
vt 0.060006 0.940580
vt 0.060006 0.956398
vt 0.938646 0.950778
vt 0.927380 0.950778
vt 0.047639 0.966261
vt 0.945510 0.965030
vt 0.956875 0.950778
vt 0.050146 0.919734
vt 0.070157 0.935692
vt 0.070157 0.961287
vt 0.050146 0.977245
vt 0.047639 0.068991
vt 0.050146 0.022463
vt 0.070157 0.038422
vt 0.070157 0.064017
vt 0.050146 0.079975
vt 0.952297 0.048930
vt 0.968721 0.041021
vt 0.968721 0.056839
vt 0.956354 0.031158
vt 0.940932 0.034678
vt 0.934068 0.048930
vt 0.933908 0.025870
vt 0.922802 0.048930
vt 0.940932 0.063182
vt 0.933908 0.071990
vt 0.956354 0.066702
vt 0.958861 0.020174
vt 0.978872 0.036133
vt 0.978872 0.061728
vt 0.958861 0.077686
vt 0.826643 0.469918
vn 0.000000 1.000000 0.000000
vn 1.000000 -0.000000 0.000000
vn 0.000000 -0.000000 1.000000
vn -1.000000 -0.000000 -0.000000
vn 0.000000 0.000000 -1.000000
vn 0.892100 0.451900 0.000000
vn 0.630800 0.451900 -0.630800
vn 0.213400 0.977000 0.000000
vn 0.150900 0.977000 -0.150900
vn -0.630800 0.451900 0.630800
vn 0.000000 0.451900 -0.892100
vn 0.000000 0.977000 -0.213400
vn 0.000000 0.451900 0.892100
vn -0.630800 0.451900 -0.630800
vn -0.150900 0.977000 -0.150900
vn 0.630800 0.451900 0.630800
vn -0.892100 0.451900 0.000000
vn -0.213400 0.977000 0.000000
vn -0.150900 0.977000 0.150900
vn 0.000000 0.977000 0.213400
vn 0.150900 0.977000 0.150900
vn -1.000000 -0.000900 0.000000
vn -0.516600 0.856200 0.000000
vn -0.301200 0.441900 -0.844900
vn -0.546700 -0.000500 0.837300
vn -0.301200 0.441900 0.844900
vn 0.516600 0.856200 0.000000
vn 0.301200 0.441900 -0.844900
vn 0.301200 0.441900 0.844900
vn 1.000000 -0.000900 0.000000
vn 0.546700 -0.000500 0.837300
vn 0.901300 -0.433100 0.000000
vn 0.546700 -0.000500 -0.837300
vn 0.336000 -0.161200 0.927900
vn -0.901300 -0.433100 0.000000
vn -0.546700 -0.000500 -0.837300
vn -0.336000 -0.161200 0.927900
vn -0.336000 -0.161200 -0.927900
vn 0.576000 0.768900 0.277400
vn 0.576000 0.768900 -0.277400
vn -0.398600 0.768900 -0.499800
vn -0.639300 0.768900 0.000000
vn 0.142200 0.768900 0.623300
vn -0.398600 0.768900 0.499800
vn 0.142200 0.768900 -0.623300
vn 0.180000 0.587800 -0.788700
vn -0.504400 0.587800 -0.632500
vn -0.504400 0.587800 0.632500
vn -0.809000 0.587800 0.000000
vn 0.728900 0.587800 -0.351000
vn 0.728900 0.587800 0.351000
vn 0.180000 0.587800 0.788700
vn 0.336000 -0.161200 -0.927900
usemtl Material
s off
f 35/1/1 36/2/1 32/3/1
f 29/4/1 32/3/1 36/2/1
f 25/4/2 29/4/2 26/5/2
f 26/5/3 30/5/3 27/6/3
f 27/6/4 31/6/4 32/3/4
f 29/4/5 25/4/5 28/3/5
f 34/7/1 35/1/1 31/6/1
f 33/8/1 34/7/1 30/5/1
f 38/1/1 39/7/1 40/8/1
f 33/8/3 36/2/3 37/2/3
f 40/8/4 39/7/4 34/7/4
f 39/7/5 38/1/5 35/1/5
f 38/1/2 37/2/2 36/2/2
f 31/6/1 35/1/1 32/3/1
f 33/8/1 29/4/1 36/2/1
f 29/4/2 30/5/2 26/5/2
f 30/5/3 31/6/3 27/6/3
f 28/3/4 27/6/4 32/3/4
f 32/3/5 29/4/5 28/3/5
f 30/5/1 34/7/1 31/6/1
f 29/4/1 33/8/1 30/5/1
f 37/2/1 38/1/1 40/8/1
f 40/8/3 33/8/3 37/2/3
f 33/8/4 40/8/4 34/7/4
f 34/7/5 39/7/5 35/1/5
f 35/1/2 38/1/2 36/2/2
s 1
f 1/9/6 4/10/7 2/11/8
f 2/11/8 5/12/9 6/13/10
f 4/10/7 7/14/11 5/12/9
f 5/12/9 8/15/12 9/16/13
f 7/14/11 10/17/14 11/18/15
f 8/15/12 11/18/15 12/19/16
f 10/17/14 13/20/17 11/18/15
f 11/18/15 14/21/18 15/22/6
f 13/20/17 16/23/10 14/21/18
f 14/21/18 17/24/19 15/22/6
f 16/23/10 19/25/13 17/24/19
f 17/24/19 20/26/20 18/27/7
f 19/25/13 22/28/16 23/29/21
f 20/26/20 23/29/21 24/30/14
f 22/28/16 1/9/6 2/11/8
f 23/29/21 2/11/8 3/31/17
f 41/32/22 44/33/23 45/34/24
f 41/32/22 43/35/25 46/36/26
f 44/33/23 47/37/27 48/38/28
f 46/36/26 49/39/29 47/37/27
f 47/37/27 50/40/30 48/38/28
f 49/39/29 52/41/31 50/40/30
f 50/40/30 53/42/32 51/43/33
f 52/41/31 55/39/34 53/42/32
f 56/44/35 41/32/22 42/45/36
f 58/36/37 43/35/25 56/44/35
f 42/45/36 45/34/24 57/34/38
f 49/39/29 46/36/26 52/41/31
f 96/46/1 102/47/39 62/48/40
f 75/49/1 82/50/41 66/51/42
f 96/46/1 100/52/43 102/47/39
f 96/46/1 94/53/44 100/52/43
f 67/54/45 68/55/46 65/56/47
f 96/46/1 59/57/42 94/53/44
f 94/53/44 93/58/48 100/52/43
f 82/50/41 78/59/47 63/60/49
f 59/57/42 60/61/49 93/58/48
f 72/62/40 73/63/50 68/55/46
f 99/64/41 97/65/47 60/61/49
f 66/51/42 63/60/49 70/66/48
f 76/67/39 77/68/51 73/63/50
f 96/46/1 99/64/41 59/57/42
f 71/69/44 70/66/48 83/70/43
f 75/49/1 66/51/42 71/69/44
f 80/71/43 81/72/52 76/67/39
f 75/49/1 71/69/44 83/70/43
f 85/73/44 86/74/48 80/71/43
f 75/49/1 83/70/43 90/75/39
f 75/49/1 90/75/39 61/76/40
f 88/77/42 89/78/49 86/74/48
f 75/49/1 61/76/40 74/79/45
f 75/49/1 74/79/45 82/50/41
f 64/80/41 65/56/47 89/78/49
f 84/81/1 64/80/41 88/77/42
f 83/70/43 79/82/52 90/75/39
f 84/81/1 67/54/45 64/80/41
f 84/81/1 72/62/40 67/54/45
f 90/75/39 87/83/51 91/84/50
f 84/81/1 76/67/39 72/62/40
f 84/81/1 80/71/43 76/67/39
f 61/76/40 91/84/50 69/85/46
f 84/81/1 85/73/44 80/71/43
f 74/79/45 69/85/46 78/59/47
f 84/81/1 88/77/42 85/73/44
f 96/46/1 62/48/40 95/86/45
f 96/46/1 95/86/45 99/64/41
f 100/52/43 98/87/52 102/47/39
f 102/47/39 101/88/51 103/89/50
f 62/48/40 103/89/50 92/90/46
f 95/86/45 92/90/46 97/65/47
f 111/91/1 117/92/39 106/93/40
f 111/91/1 115/94/43 117/92/39
f 111/91/1 109/95/44 115/94/43
f 111/91/1 104/96/42 109/95/44
f 109/95/44 108/97/48 115/94/43
f 104/96/42 105/98/49 108/97/48
f 114/99/41 112/100/47 105/98/49
f 111/91/1 114/99/41 104/96/42
f 111/91/1 106/93/40 110/101/45
f 111/91/1 110/101/45 114/99/41
f 115/94/43 113/102/52 117/92/39
f 117/92/39 116/103/51 118/104/50
f 106/93/40 118/104/50 107/105/46
f 110/101/45 107/105/46 112/100/47
f 4/10/7 5/12/9 2/11/8
f 3/31/17 2/11/8 6/13/10
f 7/14/11 8/15/12 5/12/9
f 6/13/10 5/12/9 9/16/13
f 8/15/12 7/14/11 11/18/15
f 9/16/13 8/15/12 12/19/16
f 13/20/17 14/21/18 11/18/15
f 12/19/16 11/18/15 15/22/6
f 16/23/10 17/24/19 14/21/18
f 17/24/19 18/27/7 15/22/6
f 19/25/13 20/26/20 17/24/19
f 20/26/20 21/106/11 18/27/7
f 20/26/20 19/25/13 23/29/21
f 21/106/11 20/26/20 24/30/14
f 23/29/21 22/28/16 2/11/8
f 24/30/14 23/29/21 3/31/17
f 42/45/36 41/32/22 45/34/24
f 44/33/23 41/32/22 46/36/26
f 45/34/24 44/33/23 48/38/28
f 44/33/23 46/36/26 47/37/27
f 50/40/30 51/43/33 48/38/28
f 47/37/27 49/39/29 50/40/30
f 53/42/32 54/38/53 51/43/33
f 50/40/30 52/41/31 53/42/32
f 57/34/38 56/44/35 42/45/36
f 43/35/25 41/32/22 56/44/35
f 45/34/24 48/38/28 57/34/38
f 48/38/28 51/43/33 57/34/38
f 51/43/33 54/38/53 57/34/38
f 46/36/26 43/35/25 52/41/31
f 43/35/25 58/36/37 55/39/34
f 52/41/31 43/35/25 55/39/34
f 64/80/41 67/54/45 65/56/47
f 93/58/48 98/87/52 100/52/43
f 66/51/42 82/50/41 63/60/49
f 94/53/44 59/57/42 93/58/48
f 67/54/45 72/62/40 68/55/46
f 59/57/42 99/64/41 60/61/49
f 71/69/44 66/51/42 70/66/48
f 72/62/40 76/67/39 73/63/50
f 70/66/48 79/82/52 83/70/43
f 81/72/52 77/68/51 76/67/39
f 86/74/48 81/72/52 80/71/43
f 85/73/44 88/77/42 86/74/48
f 88/77/42 64/80/41 89/78/49
f 79/82/52 87/83/51 90/75/39
f 61/76/40 90/75/39 91/84/50
f 74/79/45 61/76/40 69/85/46
f 82/50/41 74/79/45 78/59/47
f 98/87/52 101/88/51 102/47/39
f 62/48/40 102/47/39 103/89/50
f 95/86/45 62/48/40 92/90/46
f 99/64/41 95/86/45 97/65/47
f 108/97/48 113/102/52 115/94/43
f 109/95/44 104/96/42 108/97/48
f 104/96/42 114/99/41 105/98/49
f 113/102/52 116/103/51 117/92/39
f 106/93/40 117/92/39 118/104/50
f 110/101/45 106/93/40 107/105/46
f 114/99/41 110/101/45 112/100/47
